# xmcd
#
# Track frame offsets: 
#        182
#        18465
#        49610
#        103060
#        128102
#
# Disc length: 2012 seconds
#
# Revision: 0
# Processed by: cddbd v1.5.2PL0 Copyright (c) Steve Scherf et al.
# Submitted via: ExactAudioCopy v0.99pb5
#
DISCID=3a07da05
DTITLE=Nomad - Your Love Is Lifting Me
DYEAR=1992
DGENRE=House
TTITLE0=Your Love Is Lifting Me (Radio Version)
TTITLE1=Your Love Is Lifting Me (Original Club Version)
TTITLE2=Your Love Is Lifting Me (Marathon Mix)
TTITLE3=Your Love Is Lifting Me (Smart Systems Mix)
TTITLE4=Your Love Is Lifting Me (Deep Field Mix)
EXTD=
EXTT0=
EXTT1=
EXTT2=
EXTT3=
EXTT4=
PLAYORDER=
